<svg xmlns="http://www.w3.org/2000/svg" width="400" height="300" viewBox="0 0 400 300"><rect width="100%" height="100%" fill="#ACBDD6"/><path fill="#4A515C" d="M81.19 147.805H84q1.04 0 1.81-.26.77-.25 1.28-.74.51-.48.76-1.17.25-.7.25-1.55 0-.81-.25-1.47t-.75-1.12q-.51-.46-1.28-.71-.77-.24-1.82-.24h-2.81zm-3.77-10.17H84q2.03 0 3.52.47 1.48.48 2.45 1.33.96.86 1.43 2.05t.47 2.6q0 1.47-.49 2.69-.49 1.23-1.47 2.11t-2.46 1.37q-1.47.49-3.45.49h-2.81v7.13h-3.77zm20.25-.56v7.98q.84-.79 1.84-1.28 1.01-.49 2.37-.49 1.18 0 2.09.4t1.52 1.12q.6.72.92 1.72.31 1 .31 2.21v9.14h-3.45v-9.14q0-1.32-.61-2.04-.6-.72-1.83-.72-.9 0-1.68.41-.78.4-1.48 1.1v10.39h-3.46v-20.8zm18.69 6.21q1.59 0 2.9.52t2.24 1.47 1.44 2.32q.5 1.38.5 3.07 0 1.71-.5 3.08-.51 1.37-1.44 2.34-.93.96-2.24 1.48t-2.9.52q-1.61 0-2.93-.52t-2.25-1.48q-.93-.97-1.44-2.34t-.51-3.08q0-1.69.51-3.07.51-1.37 1.44-2.32t2.25-1.47 2.93-.52m0 12.14q1.79 0 2.65-1.2.86-1.21.86-3.53 0-2.33-.86-3.54-.86-1.22-2.65-1.22-1.82 0-2.7 1.22-.87 1.23-.87 3.54t.87 3.52q.88 1.21 2.7 1.21m12.46-6.38h6.52q0-.68-.19-1.27-.19-.6-.57-1.04-.37-.45-.95-.71-.59-.26-1.36-.26-1.49 0-2.35.85-.87.86-1.1 2.43m8.82 2.08h-8.89q.08 1.11.39 1.91.31.81.81 1.33.5.53 1.2.79.69.26 1.53.26t1.45-.2 1.06-.43q.46-.24.8-.44.34-.19.67-.19.43 0 .64.32l.99 1.26q-.57.67-1.28 1.12-.72.46-1.49.73-.78.28-1.59.39-.8.11-1.56.11-1.5 0-2.78-.5-1.29-.49-2.24-1.47-.96-.97-1.5-2.41-.55-1.43-.55-3.32 0-1.47.48-2.77.47-1.29 1.36-2.25t2.17-1.52 2.89-.56q1.36 0 2.51.44 1.15.43 1.97 1.26.83.84 1.3 2.05t.47 2.76q0 .79-.17 1.06t-.64.27m6.39-6.98.24 1.13q.44-.43.92-.81.48-.37 1.02-.63.54-.25 1.16-.4.61-.15 1.34-.15 1.18 0 2.09.4t1.52 1.12q.6.72.92 1.72.31 1 .31 2.21v9.14h-3.45v-9.14q0-1.32-.61-2.04-.6-.72-1.83-.72-.9 0-1.68.41-.78.4-1.48 1.1v10.39h-3.46v-14.36h2.11q.67 0 .88.63m12.91-.63h3.47v14.36h-3.47zm3.95-4.19q0 .45-.18.84t-.48.69q-.31.29-.71.47-.41.17-.87.17-.45 0-.85-.17-.4-.18-.69-.47-.29-.3-.47-.69-.17-.39-.17-.84 0-.46.17-.87.18-.4.47-.7.29-.29.69-.47.4-.17.85-.17.46 0 .87.17.4.18.71.47.3.3.48.7.18.41.18.87m10.96 10.99 4.92 7.56h-3.34q-.37 0-.6-.2-.24-.19-.39-.44l-3.04-5q-.07.24-.16.45t-.2.39l-2.69 4.16q-.15.23-.38.44-.22.2-.56.2h-3.09l4.93-7.41-4.74-6.95h3.34q.37 0 .56.1.18.11.32.34l3.01 4.79q.15-.47.43-.94l2.42-3.78q.31-.51.8-.51h3.18zm26.83-9.69h-8.99v5.62h7.08v2.89h-7.08v5.73h8.99v3.01h-12.77v-20.24h12.77zm6.24 17.25h-3.46v-14.36h2.12q.67 0 .88.63l.22 1.06q.38-.42.79-.77.42-.35.89-.6.46-.25 1-.4t1.19-.15q1.35 0 2.23.74.87.73 1.31 1.95.33-.71.84-1.23.5-.51 1.1-.83.61-.32 1.29-.47.67-.16 1.36-.16 1.19 0 2.11.37.93.36 1.56 1.06t.96 1.71.33 2.31v9.14h-3.46v-9.14q0-1.37-.6-2.07-.61-.69-1.77-.69-.53 0-.98.18-.46.18-.8.53-.35.34-.54.86-.2.52-.2 1.19v9.14h-3.47v-9.14q0-1.44-.58-2.1t-1.7-.66q-.76 0-1.41.37t-1.21 1.02zm23.45-10.16v6.44q.59.71 1.28 1 .69.3 1.46.3.8 0 1.44-.29t1.08-.89q.45-.61.69-1.56.24-.94.24-2.26 0-2.37-.79-3.42-.78-1.06-2.25-1.06-.99 0-1.74.45-.74.46-1.41 1.29m0-10.64v8.2q.87-.91 1.93-1.45 1.05-.54 2.41-.54 1.25 0 2.25.49t1.71 1.41q.7.92 1.08 2.22t.38 2.92q0 1.75-.44 3.18-.43 1.43-1.23 2.44-.81 1.02-1.94 1.58-1.14.56-2.52.56-.68 0-1.22-.13-.55-.14-1.01-.37-.46-.24-.85-.59-.38-.34-.73-.76l-.16.97q-.08.36-.28.52-.21.15-.56.15h-2.28v-20.8zm20.02 17.09v-2.42q-1.5.07-2.52.26t-1.64.48q-.61.29-.88.69-.27.39-.27.85 0 .91.54 1.3t1.41.39q1.06 0 1.84-.38.78-.39 1.52-1.17m-7.31-7.55-.61-1.1q2.47-2.27 5.96-2.27 1.26 0 2.25.41 1 .42 1.68 1.15.69.74 1.05 1.76.35 1.02.35 2.24v9.07h-1.56q-.49 0-.76-.15-.27-.14-.42-.59l-.31-1.04q-.54.49-1.06.86t-1.08.63q-.56.25-1.2.38-.63.13-1.4.13-.91 0-1.68-.24-.77-.25-1.33-.74t-.87-1.21q-.31-.73-.31-1.7 0-.54.18-1.08t.6-1.03q.41-.49 1.07-.93.66-.43 1.62-.75.95-.32 2.23-.53 1.27-.2 2.91-.24v-.84q0-1.44-.62-2.14-.61-.69-1.77-.69-.84 0-1.4.2-.55.19-.97.44-.42.24-.76.44-.35.19-.77.19-.36 0-.61-.18-.25-.19-.41-.45m13.97-9.54h3.46v20.8h-3.46zm6.96 0h3.46v20.8h-3.46zm14.51 17.09v-2.42q-1.5.07-2.52.26-1.03.19-1.64.48-.62.29-.88.69-.27.39-.27.85 0 .91.54 1.3t1.41.39q1.06 0 1.84-.38.77-.39 1.52-1.17m-7.31-7.55-.62-1.1q2.48-2.27 5.97-2.27 1.26 0 2.25.41.99.42 1.68 1.15.69.74 1.04 1.76.36 1.02.36 2.24v9.07h-1.57q-.49 0-.75-.15-.27-.14-.42-.59l-.31-1.04q-.55.49-1.07.86-.51.37-1.07.63-.56.25-1.2.38t-1.41.13q-.91 0-1.68-.24-.77-.25-1.33-.74t-.87-1.21q-.3-.73-.3-1.7 0-.54.18-1.08t.59-1.03q.42-.49 1.07-.93.66-.43 1.62-.75t2.23-.53q1.28-.2 2.92-.24v-.84q0-1.44-.62-2.14-.62-.69-1.78-.69-.84 0-1.39.2-.55.19-.97.44l-.77.44q-.34.19-.76.19-.36 0-.62-.18-.25-.19-.4-.45m19.18 3.73q.64 0 1.12-.18.47-.17.79-.48.31-.31.48-.74.16-.44.16-.95 0-1.07-.64-1.69t-1.91-.62q-1.28 0-1.91.62-.64.62-.64 1.69 0 .5.16.93.16.44.48.75.31.32.8.49.48.18 1.11.18m3.9 8.17q0-.42-.25-.68-.25-.27-.68-.42-.44-.14-1.02-.21t-1.23-.11l-1.34-.06q-.7-.03-1.36-.11-.57.32-.93.75-.35.44-.35 1.01 0 .38.19.71.18.33.6.57.41.23 1.07.37.66.13 1.61.13.96 0 1.66-.15.7-.14 1.16-.4.45-.26.66-.62t.21-.78m-.68-14.51h4.13v1.28q0 .62-.74.76l-1.29.24q.29.74.29 1.62 0 1.07-.42 1.93-.43.86-1.19 1.46-.75.6-1.78.93t-2.22.33q-.42 0-.81-.04-.4-.04-.77-.11-.68.4-.68.91 0 .43.4.63.4.21 1.06.29t1.5.1q.84.03 1.72.1t1.72.24q.84.18 1.5.55.66.38 1.06 1.03t.4 1.68q0 .95-.47 1.84-.47.9-1.36 1.6t-2.18 1.13q-1.3.42-2.95.42-1.63 0-2.83-.31-1.2-.32-2-.84-.8-.53-1.19-1.21-.39-.69-.39-1.43 0-1.01.61-1.69.6-.68 1.67-1.08-.58-.3-.91-.79-.34-.49-.34-1.28 0-.33.12-.67t.35-.68q.23-.33.58-.64.35-.3.83-.53-1.09-.59-1.72-1.57-.62-.98-.62-2.3 0-1.06.43-1.92.42-.86 1.19-1.47.76-.61 1.8-.93 1.05-.33 2.28-.33.92 0 1.73.19.82.19 1.49.56m9.04 5.04h6.53q0-.68-.19-1.27-.19-.6-.57-1.04-.38-.45-.96-.71t-1.35-.26q-1.5 0-2.36.85-.86.86-1.1 2.43m8.82 2.08h-8.89q.09 1.11.39 1.91.31.81.82 1.33.5.53 1.19.79.7.26 1.54.26t1.45-.2q.6-.2 1.06-.43.45-.24.8-.44.34-.19.66-.19.44 0 .65.32l.99 1.26q-.57.67-1.29 1.12-.71.46-1.49.73-.78.28-1.58.39-.81.11-1.56.11-1.5 0-2.79-.5-1.29-.49-2.24-1.47-.95-.97-1.5-2.41-.54-1.43-.54-3.32 0-1.47.47-2.77.48-1.29 1.37-2.25t2.17-1.52 2.89-.56q1.36 0 2.51.44 1.14.43 1.97 1.26.83.84 1.3 2.05.46 1.21.46 2.76 0 .79-.16 1.06-.17.27-.65.27m12.95-6.06-.78 1.25q-.14.22-.3.31-.15.09-.39.09-.25 0-.54-.14-.28-.14-.66-.31-.38-.18-.86-.32-.49-.14-1.14-.14-1.03 0-1.61.44-.58.43-.58 1.13 0 .46.3.78.3.31.8.55t1.13.43 1.28.41 1.28.51 1.13.73q.49.44.8 1.06.3.61.3 1.48 0 1.04-.37 1.91-.38.88-1.1 1.51-.73.64-1.8 1-1.07.35-2.47.35-.75 0-1.45-.13-.71-.13-1.36-.37t-1.2-.56q-.56-.32-.98-.7l.8-1.32q.15-.23.36-.36t.54-.13q.32 0 .61.19.28.18.66.39t.89.39 1.29.18q.62 0 1.06-.15.44-.14.73-.38t.42-.55q.13-.32.13-.65 0-.51-.3-.83t-.8-.56q-.49-.24-1.13-.43t-1.3-.41q-.67-.22-1.3-.53-.64-.3-1.14-.76t-.8-1.13-.3-1.63q0-.88.35-1.68.35-.79 1.03-1.39.68-.59 1.7-.95 1.01-.36 2.34-.36 1.48 0 2.7.49t2.03 1.29"/></svg>